<svg xmlns="http://www.w3.org/2000/svg" fill="#000" width="160" height="160" viewBox="0 0 120 120">
  <path d="M45.2 3C34.3 5.9 26.5 10.4 18 19 9.3 27.6 4.9 35.3 2 46.6-1.6 60.7.2 76 7.2 89.3c4.8 9.2 16.4 20.5 25.9 25.1 10.4 5.1 11.3 4.8 11.7-3.6l.3-6.6h-6c-7.5 0-11.2-2.1-14.6-8.3-1.4-2.6-4-5.9-5.7-7.4-2.1-1.8-2.8-2.9-2-3.7 1.3-1.3 5.5 0 4.6 1.4-.5.7-.1.9.8.5.9-.3 2.5.4 3.7 1.7 2.2 2.3 2.8 4.2 1.1 3.1-.5-.3-1-.1-1 .5 0 .7.6 1 1.3.7.6-.2 2.2.5 3.4 1.6 2.3 2.1 10.9 3.4 12.9 2 .5-.4 1.9-2.7 3-4.9l2-4.2-4.5-.6c-5.7-.8-14.2-5.5-17.1-9.6-3.2-4.4-5-11.3-5-18.6 0-4.9.6-7.3 2.8-11.5 2.2-4.2 2.7-6.4 2.4-9.7-.2-2.3-.1-5.8.2-7.7.6-3 1.1-3.5 3.5-3.5 1.6 0 5.4 1.3 8.5 2.9 5.5 2.8 5.9 2.8 13.2 1.8 5.3-.8 9.5-.8 14.8 0 7.3 1 7.7 1 13.2-1.8 3.1-1.6 6.9-2.9 8.5-2.9 2.4 0 2.9.5 3.5 3.5.3 1.9.4 5.4.2 7.7-.3 3.3.2 5.5 2.4 9.7 5.1 9.7 3.2 24.7-4.1 32-3.9 3.9-13 8.1-17.7 8.1-2.4 0-2.4 0-.7 2.7 1.4 2.1 1.9 5.5 2.3 15.2.6 15.1.6 15.1 11.7 9.6 29.7-14.7 41.5-50.6 26.6-80.8-4.6-9.1-16-20.8-25-25.5C75.1 1.3 59.2-.6 45.2 3z"/>
</svg>
